<svg xmlns="http://www.w3.org/2000/svg" viewBox="0 0 512 512" style="height: 512px; width: 512px;"><defs><clipPath id="icon-bg"><polygon points="369,451.72,143,451.72,30,256,143,60.28,369,60.28,482,256" fill="#000" fill-opacity="1" stroke="#000000" stroke-opacity="1" stroke-width="30"></polygon></clipPath></defs><polygon points="369,451.72,143,451.72,30,256,143,60.28,369,60.28,482,256" fill="#000" fill-opacity="1" stroke="#000000" stroke-opacity="1" stroke-width="30"></polygon><g class="" transform="translate(0,0)" style=""><path d="M494 18.02l-101 .103V119h101zm-119 .12l-238 .247V119h238zm-256 .266L18 18.51V119h101zM18 137v110h229V137zm247 0v110h229V137zM18 265v110h101V265zm119 0v110h238V265zm256 0v110h101V265zM18 393v100.98l229-.236V393zm247 0v100.727l229-.237V393z" fill="#fff" fill-opacity="1" stroke="#ccc" stroke-opacity="1" stroke-width="8" clip-path="url(#icon-bg)"></path></g></svg>